<svg aria-hidden="true" style="position: absolute; width: 0; height: 0; overflow: hidden;" version="1.1" xmlns="http://www.w3.org/2000/svg" xmlns:xlink="http://www.w3.org/1999/xlink">
<defs>
<symbol id="twitter" viewBox="0 0 32 32">
<path d="M16 0c-8.835 0-16 7.165-16 16s7.165 16 16 16 16-7.165 16-16-7.165-16-16-16zM23.305 12.475c0.007 0.157 0.011 0.316 0.011 0.475 0 4.853-3.694 10.449-10.449 10.449v0c-2.074 0-4.004-0.608-5.629-1.65 0.287 0.034 0.58 0.051 0.876 0.051 1.721 0 3.304-0.587 4.561-1.572-1.608-0.030-2.963-1.092-3.431-2.551 0.224 0.043 0.454 0.066 0.69 0.066 0.335 0 0.66-0.045 0.969-0.129-1.68-0.336-2.946-1.822-2.946-3.6 0-0.017 0-0.031 0-0.047 0.495 0.275 1.061 0.441 1.663 0.459-0.986-0.658-1.634-1.783-1.634-3.057 0-0.673 0.182-1.303 0.497-1.846 1.811 2.222 4.518 3.684 7.57 3.837-0.063-0.269-0.095-0.549-0.095-0.837 0-2.027 1.645-3.672 3.673-3.672 1.056 0 2.011 0.447 2.681 1.16 0.837-0.165 1.622-0.471 2.332-0.891-0.275 0.857-0.857 1.576-1.615 2.031 0.743-0.089 1.451-0.286 2.109-0.578-0.491 0.737-1.115 1.384-1.832 1.902z"></path>
</symbol>
<symbol id="facebook" viewBox="0 0 32 32">
<path d="M18.58 31.792c-0.133 0.022-0.267 0.042-0.401 0.060 0.134-0.018 0.268-0.038 0.401-0.060z"></path>
<path d="M18.9 31.737c-0.064 0.012-0.127 0.022-0.191 0.033 0.064-0.011 0.127-0.022 0.191-0.033z"></path>
<path d="M17.821 31.896c-0.156 0.018-0.313 0.033-0.47 0.046 0.157-0.013 0.314-0.029 0.47-0.046z"></path>
<path d="M18.128 31.859c-0.075 0.010-0.15 0.019-0.226 0.028 0.075-0.009 0.151-0.018 0.226-0.028z"></path>
<path d="M19.335 31.651c-0.056 0.012-0.113 0.024-0.169 0.035 0.056-0.011 0.113-0.023 0.169-0.035z"></path>
<path d="M20.416 31.382c-0.045 0.013-0.091 0.025-0.136 0.038 0.045-0.013 0.091-0.025 0.136-0.038z"></path>
<path d="M20.090 31.471c-0.049 0.013-0.099 0.026-0.148 0.039 0.050-0.012 0.099-0.025 0.148-0.039z"></path>
<path d="M19.662 31.578c-0.052 0.012-0.105 0.024-0.158 0.035 0.053-0.012 0.105-0.023 0.158-0.035z"></path>
<path d="M17.345 31.943c-0.084 0.007-0.168 0.013-0.253 0.019 0.084-0.006 0.169-0.012 0.253-0.019z"></path>
<path d="M32 16c0-8.835-7.165-16-16-16s-16 7.165-16 16 7.165 16 16 16c0.094 0 0.188-0.002 0.281-0.004v-12.455h-3.438v-4.006h3.438v-2.948c0-3.419 2.087-5.28 5.137-5.28 1.46 0 2.716 0.109 3.082 0.157v3.573h-2.103c-1.659 0-1.98 0.789-1.98 1.946v2.551h3.967l-0.517 4.006h-3.45v11.841c6.688-1.917 11.584-8.079 11.584-15.382z"></path>
<path d="M17.057 31.964c-0.166 0.011-0.334 0.019-0.501 0.025 0.168-0.006 0.335-0.014 0.501-0.025z"></path>
<path d="M16.547 31.99c-0.088 0.003-0.177 0.005-0.266 0.007 0.089-0.001 0.177-0.004 0.266-0.007z"></path>
</symbol>
<symbol id="linkedin" viewBox="0 0 32 32">
<path d="M16 0c-8.835 0-16 7.165-16 16s7.165 16 16 16 16-7.165 16-16-7.165-16-16-16zM11.351 24.188h-3.897v-11.723h3.897zM9.402 10.863h-0.025c-1.308 0-2.153-0.9-2.153-2.025 0-1.15 0.872-2.026 2.205-2.026s2.153 0.875 2.179 2.026c0 1.125-0.846 2.025-2.205 2.025zM25.401 24.188h-3.896v-6.272c0-1.576-0.564-2.651-1.974-2.651-1.076 0-1.718 0.725-1.999 1.425-0.103 0.25-0.128 0.601-0.128 0.951v6.547h-3.896s0.051-10.624 0-11.723h3.896v1.66c0.518-0.799 1.444-1.935 3.512-1.935 2.564 0 4.486 1.676 4.486 5.276z"></path>
</symbol>
</defs>
</svg>
